<?xml version="1.0" encoding="UTF-8"?>
<svg width="32" height="32" viewBox="0 0 32 32" fill="none" xmlns="http://www.w3.org/2000/svg">
  <rect width="32" height="32" rx="6" fill="#3B82F6"/>
  <!-- Brain icon representing AI -->
  <path d="M16 4C12.5 4 9.5 6.5 9.5 10C9.5 11.5 10 13 11 14H10C8.5 14 7 15.3 7 17C7 18 7.5 19 8.5 19.5C8 20 7.5 21 7.5 21.5C7.5 23.5 9 25 11 25H21C23 25 24.5 23.5 24.5 21.5C24.5 21 24 20 23.5 19.5C24.5 19 25 18 25 17C25 15.3 23.5 14 22 14H21C22 13 22.5 11.5 22.5 10C22.5 6.5 19.5 4 16 4Z" fill="white"/>
  <!-- Circuit lines representing AI technology -->
  <path d="M12 16.5H14.5V19H17.5V16.5H20" stroke="#3B82F6" stroke-width="1.2"/>
  <!-- Bar chart representing ranking -->
  <rect x="10" y="22" width="2" height="5" fill="#3B82F6"/>
  <rect x="15" y="20" width="2" height="7" fill="#3B82F6"/>
  <rect x="20" y="18" width="2" height="9" fill="#3B82F6"/>
  <!-- Border for bar chart -->
  <path d="M8 28H24V27H8V28Z" fill="white"/>
  <path d="M8 27L8 18" stroke="white" stroke-width="1" stroke-linecap="round"/>
</svg> 