<?xml version="1.0" standalone="no"?><!DOCTYPE svg PUBLIC "-//W3C//DTD SVG 1.1//EN" "http://www.w3.org/Graphics/SVG/1.1/DTD/svg11.dtd"><svg t="1752557001768" class="icon" viewBox="0 0 1024 1024" version="1.1" xmlns="http://www.w3.org/2000/svg" p-id="5474" xmlns:xlink="http://www.w3.org/1999/xlink" width="200" height="200"><path d="M512 1024C229.23 1024 0 794.77 0 512S229.23 0 512 0s512 229.23 512 512-229.23 512-512 512z m0.43-800a279.25 279.25 0 0 0-32.563 1.915c-26.152 2.949-51.221 9.459-74.787 18.913 0 0 194.316 191.609 199.49 198.731V239.23c-5.79-1.965-11.707-3.734-17.672-5.38-23.736-6.363-48.708-9.85-74.468-9.85z m202.97 83.24c-7.79-7.76-15.951-14.935-24.38-21.588a286.85 286.85 0 0 0-66.284-39.3s1.43 272.315 0 281.011L769.78 382.867a293.184 293.184 0 0 0-8.729-16.213c-12.3-21.22-27.433-41.288-45.65-59.413z m63.669 98.298S586.825 599.134 579.627 604.291h205.089c1.97-5.77 3.748-11.668 5.373-17.61 6.408-23.703 9.912-48.51 9.912-74.202 0-10.98-0.692-21.811-1.952-32.446a282.69 282.69 0 0 0-18.98-74.495zM493.867 625.807l145.041 144.498a287.549 287.549 0 0 0 16.294-8.695c21.3-12.208 41.414-27.312 59.656-45.487 7.762-7.74 14.938-15.894 21.643-24.29 16.34-20.539 29.532-42.765 39.439-66.05 0 0-273.32 1.427-282.073 0.024z m-74.417-45.39V784.77a294.79 294.79 0 0 0 17.673 5.357c23.765 6.386 48.687 9.872 74.471 9.872 10.992 0 21.863-0.686 32.513-1.914a286.83 286.83 0 0 0 74.788-18.94c0.024 0-194.27-191.555-199.445-198.728z m-20.41-85.23L254.045 639.682c2.714 5.528 5.647 10.933 8.728 16.236 12.253 21.271 27.41 41.313 45.652 59.465 7.765 7.763 15.95 14.91 24.378 21.566 20.63 16.336 42.892 29.426 66.31 39.298 0 0-1.479-272.34-0.076-281.06z m-165.157-57.745C227.5 461.121 224 485.953 224 511.646c0 10.953 0.692 21.809 1.948 32.421 2.959 26.083 9.441 51.064 19.006 74.496 0 0 192.223-193.598 199.42-198.732H239.26c-1.972 5.746-3.747 11.666-5.376 17.611z m133.531-173.948c-21.346 12.232-41.461 27.34-59.655 45.464-7.838 7.788-14.986 15.942-21.666 24.29-16.369 20.539-29.532 42.79-39.464 66.1 0 0 273.368-1.45 282.096-0.05L383.705 254.8c-5.518 2.749-10.967 5.625-16.29 8.694z" fill="#07C160" p-id="5475"></path></svg>